<svg display="none" version="1.1" xmlns="http://www.w3.org/2000/svg" xmlns:xlink="http://www.w3.org/1999/xlink" width="188" height="32" viewBox="0 0 188 32">
<defs>
<g id="icon-list">
	<path class="path1" d="M25.6 14.4h-19.2c-0.883 0-1.6 0.717-1.6 1.6s0.717 1.6 1.6 1.6h19.2c0.885 0 1.6-0.717 1.6-1.6s-0.715-1.6-1.6-1.6zM6.4 11.2h19.2c0.885 0 1.6-0.717 1.6-1.6s-0.715-1.6-1.6-1.6h-19.2c-0.883 0-1.6 0.717-1.6 1.6s0.717 1.6 1.6 1.6zM25.6 20.8h-19.2c-0.883 0-1.6 0.715-1.6 1.6s0.717 1.6 1.6 1.6h19.2c0.885 0 1.6-0.715 1.6-1.6s-0.715-1.6-1.6-1.6z" />
</g>
<g id="icon-twitter">
	<path class="path1" d="M30.72 6.869c-1.085 0.482-2.248 0.805-3.47 0.952 1.248-0.747 2.206-1.931 2.656-3.341-1.166 0.691-2.459 1.195-3.834 1.466-1.102-1.174-2.672-1.907-4.41-1.907-3.336 0-6.040 2.704-6.040 6.038 0 0.474 0.053 0.934 0.157 1.376-5.019-0.251-9.47-2.656-12.448-6.31-0.522 0.891-0.821 1.93-0.821 3.037 0 2.096 1.067 3.944 2.688 5.027-0.99-0.032-1.922-0.302-2.736-0.755 0 0.026 0 0.050 0 0.075 0 2.926 2.083 5.366 4.845 5.923-0.506 0.138-1.040 0.211-1.592 0.211-0.389 0-0.766-0.037-1.136-0.107 0.768 2.4 3 4.146 5.642 4.194-2.067 1.621-4.67 2.586-7.501 2.586-0.488 0-0.968-0.029-1.44-0.085 2.672 1.714 5.846 2.714 9.259 2.714 11.109 0 17.184-9.203 17.184-17.186 0-0.261-0.005-0.522-0.018-0.781 1.181-0.851 2.203-1.915 3.014-3.126z" />
</g>
<g id="icon-logo">
	<path class="path1" d="M54.154 14.468c0-0.047-0.004-0.094-0.011-0.139l-0.001-0.026 0.012-13.783-0.005-0.003c-0.010-0.287-0.242-0.517-0.528-0.517-0.132 0-0.253 0.050-0.345 0.131l-5.998 3.966c0 0-0.076 0.061-0.201 0.062-0.135 0.002-0.213-0.072-0.213-0.072l-5.984-3.957c-0.093-0.081-0.213-0.131-0.345-0.131-0.286 0-0.518 0.23-0.528 0.518l-0.005 0.003 0.012 13.715-0.012 0.296 0.009 0.018c0.020 0.252 0.132 0.476 0.302 0.641l0.011 0.022 0.057 0.040 0.003 0.006 6.042 4.205c0.17 0.143 0.389 0.229 0.628 0.229 0.008 0 0.016-0.001 0.025-0.001 0.008 0 0.016 0.001 0.025 0.001 0.239 0 0.458-0.086 0.628-0.229l0.002-0 5.972-4.158c0.013-0.008 0.025-0.017 0.037-0.026l0.031-0.022 0.002-0.003c0.008-0.006 0.016-0.011 0.023-0.017l0.036-0.025 0.007-0.015c0.177-0.167 0.293-0.399 0.311-0.66l0.003-0.007-0.002-0.029c0-0.011 0.002-0.022 0.002-0.033v0zM52.132 13.673c0 0-0.004 0.101-0.042 0.17-0.041 0.075-0.119 0.13-0.119 0.13l-4.691 3.099c0 0-0.070 0.063-0.206 0.063-0.133 0-0.211-0.070-0.211-0.070l-4.67-3.085c0 0-0.069-0.036-0.125-0.13-0.035-0.059-0.044-0.125-0.046-0.159v-9.502c0.003-0.051 0.025-0.192 0.16-0.292 0.212-0.136 0.403-0.004 0.403-0.004l3.944 2.422c0.157 0.108 0.347 0.171 0.551 0.171 0.188 0 0.363-0.054 0.512-0.147h0.001l4.062-2.485c0.075-0.024 0.192-0.037 0.317 0.043 0.135 0.099 0.156 0.241 0.16 0.292v9.484z" />
	<path class="path2" d="M46.885 8.914l-0.003-0.004-2.437-1.457c-0.062-0.042-0.138-0.068-0.221-0.068-0.206 0-0.373 0.156-0.381 0.35l-0.001 0v0.010c0 0.001-0 0.002-0 0.003 0 0.001 0 0.002 0 0.003v4.792l0.002 0.003c0.005 0.078 0.035 0.161 0.1 0.241 0.038 0.027 0.076 0.046 0.114 0.062l2.419 1.445c0.004 0.003 0.009 0.006 0.014 0.008l0.001 0.001h0c0.059 0.035 0.128 0.056 0.203 0.056 0.202 0 0.366-0.15 0.38-0.339l0.003-0.001v-4.819l-0.003-0.005c-0.011-0.121-0.084-0.224-0.189-0.282z" />
	<path class="path3" d="M0.173 26.341h1.681l1.161 3.291h0.014l1.168-3.291h1.674v5.043h-1.111v-3.868h-0.014l-1.325 3.868h-0.848l-1.275-3.868h-0.014v3.868h-1.111v-5.043zM10.669 26.341h0.919l2.194 5.043h-1.254l-0.435-1.069h-1.959l-0.42 1.069h-1.225l2.18-5.043zM11.096 27.809l-0.613 1.567h1.232l-0.62-1.567zM19.697 27.652c-0.109-0.133-0.243-0.235-0.402-0.306-0.159-0.071-0.343-0.107-0.552-0.107-0.209 0-0.402 0.040-0.581 0.121-0.178 0.081-0.332 0.194-0.463 0.338-0.131 0.145-0.233 0.317-0.306 0.516-0.074 0.199-0.11 0.416-0.11 0.648 0 0.237 0.037 0.455 0.11 0.652 0.074 0.197 0.175 0.368 0.303 0.513 0.128 0.145 0.279 0.258 0.452 0.338 0.173 0.081 0.36 0.121 0.559 0.121 0.228 0 0.43-0.047 0.605-0.142 0.176-0.095 0.321-0.228 0.435-0.399l0.926 0.691c-0.214 0.299-0.484 0.52-0.812 0.662s-0.665 0.214-1.012 0.214c-0.394 0-0.757-0.062-1.090-0.185-0.332-0.123-0.62-0.3-0.862-0.531-0.242-0.23-0.431-0.509-0.566-0.837-0.135-0.328-0.203-0.693-0.203-1.097 0-0.404 0.068-0.769 0.203-1.097 0.135-0.328 0.324-0.607 0.566-0.837 0.242-0.23 0.529-0.407 0.862-0.531 0.332-0.123 0.696-0.185 1.090-0.185 0.142 0 0.291 0.013 0.445 0.039 0.154 0.026 0.306 0.068 0.456 0.125 0.15 0.057 0.293 0.133 0.431 0.228 0.138 0.095 0.261 0.211 0.37 0.349l-0.855 0.698zM23.433 26.341h1.111v2.094l1.959-2.094h1.453l-2.244 2.344 2.436 2.7h-1.553l-2.052-2.393v2.393h-1.111v-5.043zM30.689 26.341h3.426v1.026h-2.315v0.94h2.187v1.026h-2.187v1.026h2.443v1.026h-3.555v-5.043zM37.245 26.341h1.51l2.144 3.505h0.014v-3.505h1.111v5.043h-1.453l-2.201-3.59h-0.014v3.59h-1.111v-5.043zM44.899 30.359l2.557-3.035h-2.465v-0.983h3.811v0.983l-2.507 3.035h2.593v1.026h-3.989v-1.026zM51.748 26.341h1.111v5.043h-1.111v-5.043zM56.026 26.341h3.426v1.026h-2.315v0.94h2.187v1.026h-2.187v1.026h2.443v1.026h-3.555v-5.043zM66.23 27.431c-0.142-0.185-0.323-0.328-0.541-0.427-0.218-0.1-0.444-0.15-0.677-0.15-0.285 0-0.543 0.053-0.773 0.16-0.23 0.107-0.427 0.253-0.591 0.438-0.164 0.185-0.291 0.402-0.381 0.652-0.090 0.249-0.135 0.516-0.135 0.801 0 0.266 0.043 0.518 0.128 0.755 0.085 0.237 0.209 0.446 0.37 0.627 0.161 0.18 0.359 0.323 0.591 0.427 0.233 0.104 0.496 0.157 0.791 0.157 0.29 0 0.544-0.059 0.762-0.178 0.218-0.119 0.404-0.285 0.556-0.499l0.577 0.435c-0.038 0.052-0.104 0.127-0.199 0.224-0.095 0.097-0.221 0.195-0.378 0.292-0.157 0.097-0.345 0.183-0.566 0.256-0.221 0.074-0.476 0.11-0.766 0.11-0.399 0-0.759-0.076-1.079-0.228-0.321-0.152-0.594-0.351-0.819-0.598-0.226-0.247-0.398-0.526-0.516-0.837-0.119-0.311-0.178-0.626-0.178-0.944 0-0.389 0.064-0.749 0.192-1.079 0.128-0.33 0.307-0.615 0.538-0.855 0.23-0.24 0.507-0.426 0.83-0.559 0.323-0.133 0.679-0.199 1.069-0.199 0.332 0 0.659 0.064 0.979 0.192 0.321 0.128 0.583 0.325 0.787 0.591l-0.57 0.435zM69.845 26.341h0.684v2.094h2.614v-2.094h0.684v5.043h-0.684v-2.308h-2.614v2.308h-0.684v-5.043zM77.235 26.341h0.684v5.043h-0.684v-5.043zM81.328 26.341h0.684v4.402h2.315v0.641h-2.999v-5.043zM87.023 26.341h1.759c0.356 0 0.668 0.040 0.937 0.121s0.501 0.189 0.698 0.324c0.197 0.135 0.361 0.291 0.492 0.467 0.131 0.176 0.234 0.356 0.31 0.541 0.076 0.185 0.131 0.37 0.164 0.556 0.033 0.185 0.050 0.356 0.050 0.513 0 0.323-0.059 0.635-0.178 0.937-0.119 0.302-0.294 0.57-0.527 0.805-0.233 0.235-0.521 0.424-0.865 0.566-0.344 0.142-0.742 0.214-1.193 0.214h-1.645v-5.043zM87.707 30.744h0.862c0.29 0 0.564-0.039 0.823-0.118s0.486-0.196 0.68-0.353c0.195-0.157 0.349-0.353 0.463-0.588 0.114-0.235 0.171-0.509 0.171-0.823 0-0.161-0.026-0.35-0.078-0.566-0.052-0.216-0.151-0.421-0.296-0.616-0.145-0.195-0.345-0.36-0.602-0.495-0.256-0.135-0.589-0.203-0.997-0.203h-1.026v3.761z" />
</g>
</defs></svg>